<?xml version="1.0" standalone="no"?>
<!DOCTYPE svg PUBLIC "-//W3C//DTD SVG 20010904//EN"
 "http://www.w3.org/TR/2001/REC-SVG-20010904/DTD/svg10.dtd">
<svg version="1.0" xmlns="http://www.w3.org/2000/svg"
 width="2048.000000pt" height="2048.000000pt" viewBox="0 0 2048.000000 2048.000000"
 preserveAspectRatio="xMidYMid meet">

<g transform="translate(0.000000,2048.000000) scale(0.100000,-0.100000)"
fill="#000000" stroke="none">
<path d="M9880 20469 c-1917 -65 -3774 -668 -5367 -1745 -764 -516 -1476
-1155 -2084 -1869 -1005 -1181 -1742 -2615 -2118 -4120 -295 -1182 -378 -2409
-246 -3620 180 -1641 760 -3223 1683 -4590 382 -565 763 -1026 1257 -1521 803
-804 1658 -1420 2675 -1927 1252 -626 2538 -967 3990 -1058 241 -15 892 -15
1140 0 1432 87 2732 431 3980 1052 572 285 1056 582 1560 957 612 456 1196
1004 1701 1597 845 994 1509 2180 1918 3428 277 845 432 1671 492 2617 25 394
13 1040 -26 1490 -140 1578 -655 3122 -1490 4467 -1410 2268 -3637 3897 -6213
4543 -716 179 -1395 273 -2175 300 -308 11 -345 10 -677 -1z m960 -669 c1924
-128 3695 -791 5220 -1954 571 -436 1130 -977 1595 -1545 879 -1075 1517
-2333 1860 -3666 152 -592 240 -1153 286 -1815 7 -96 13 -357 13 -580 0 -411
-9 -593 -45 -960 -148 -1510 -660 -2968 -1493 -4250 -524 -808 -1169 -1533
-1924 -2162 -896 -748 -1952 -1336 -3075 -1713 -781 -262 -1574 -416 -2462
-477 -386 -26 -1050 -14 -1485 28 -2525 241 -4830 1461 -6457 3415 -817 982
-1439 2137 -1804 3351 -492 1639 -538 3378 -134 5043 486 2004 1633 3822 3244
5140 1142 934 2490 1596 3911 1919 626 142 1087 202 1835 240 124 6 755 -3
915 -14z"/>
<path d="M9350 19199 c-199 -14 -574 -49 -580 -55 -4 -4 -100 -2475 -96 -2481
1 0 36 5 78 12 42 8 175 26 295 40 120 15 219 28 221 30 7 7 63 1645 58 1713
-5 78 5 87 23 20 6 -24 138 -326 294 -673 l284 -630 257 0 258 0 274 610 c151
336 284 637 296 670 12 33 24 63 27 67 4 4 5 -36 3 -90 -3 -100 52 -1679 59
-1686 2 -2 67 -12 144 -20 154 -18 411 -54 435 -61 13 -4 9 151 -31 1235 -25
682 -47 1241 -50 1244 -13 13 -823 76 -834 64 -13 -13 -551 -1353 -565 -1408
l-17 -65 -12 54 c-6 29 -136 361 -288 737 l-277 684 -66 -1 c-36 -1 -121 -6
-190 -10z"/>
<path d="M15288 17623 c-87 -133 -1269 -1985 -1274 -1996 -3 -9 27 -39 83 -84
74 -58 187 -153 393 -331 l39 -32 613 316 c337 174 632 330 656 346 49 33 52
30 16 -17 -20 -27 -664 -1250 -664 -1262 0 -2 43 -52 96 -111 53 -59 152 -176
221 -260 85 -103 130 -151 140 -148 13 5 1941 1218 2021 1271 l32 22 -42 54
c-75 96 -340 419 -344 419 -11 0 -1307 -857 -1346 -890 -26 -22 -49 -40 -53
-40 -3 0 12 26 33 58 22 31 166 311 322 621 l283 563 -199 199 c-109 110 -204
199 -211 199 -18 0 -1151 -567 -1200 -601 -48 -33 -58 -26 -17 12 27 24 904
1332 904 1347 0 4 -21 26 -47 47 -103 87 -417 335 -424 335 -3 0 -17 -17 -31
-37z"/>
<path d="M4545 17184 c-235 -57 -488 -272 -1045 -889 -210 -233 -523 -604
-641 -760 l-42 -56 29 -29 c16 -16 412 -389 879 -830 l850 -800 50 53 c28 29
192 206 366 392 174 187 446 475 604 640 403 420 461 490 545 667 54 112 74
194 74 303 0 281 -210 543 -484 601 -123 26 -279 13 -394 -32 l-38 -15 7 28
c29 113 24 241 -15 349 -63 181 -228 331 -415 379 -75 19 -249 18 -330 -1z
m231 -505 c37 -11 97 -67 120 -110 40 -78 25 -181 -40 -283 -45 -71 -313 -360
-823 -890 l-134 -138 -82 78 c-273 260 -260 247 -245 270 43 71 443 517 682
761 304 311 378 355 522 312z m767 -618 c40 -16 99 -73 118 -116 37 -80 18
-169 -56 -277 -47 -66 -982 -1068 -998 -1068 -15 0 -355 324 -354 336 2 12
750 797 929 975 118 118 190 159 279 159 32 0 69 -4 82 -9z"/>
<path d="M10000 16299 c-1808 -62 -3514 -956 -4612 -2418 -643 -855 -1053
-1882 -1172 -2936 -51 -447 -51 -956 0 -1400 206 -1818 1238 -3457 2794 -4437
616 -388 1309 -667 2010 -808 437 -88 771 -121 1230 -121 359 0 631 21 950 71
1554 248 2942 1086 3899 2358 570 757 960 1665 1120 2612 93 551 109 1143 45
1715 -240 2152 -1651 4039 -3656 4889 -666 282 -1423 453 -2098 472 -96 2
-204 6 -240 7 -36 2 -157 0 -270 -4z m765 -345 c2266 -200 4227 -1768 4933
-3944 168 -519 256 -1022 278 -1592 l7 -178 -2872 0 -2871 0 0 -2871 0 -2872
-177 7 c-948 36 -1819 278 -2621 728 -989 554 -1809 1406 -2316 2408 -387 763
-588 1546 -622 2423 l-7 177 2872 0 2871 0 0 2871 0 2872 178 -7 c97 -4 254
-13 347 -22z"/>
</g>
</svg>
